<svg width="24" height="24" viewBox="0 0 24 24" fill="none" xmlns="http://www.w3.org/2000/svg">
<path fill-rule="evenodd" clip-rule="evenodd" d="M12 0C5.37259 0 0 5.37258 0 12C0 18.6275 5.37259 24 12 24C18.6274 24 24 18.6275 24 12C24 5.37258 18.6274 0 12 0ZM14.3386 6C14.3386 6.17831 14.3553 6.35393 14.386 6.52388C14.5336 7.30955 14.9985 7.98375 15.6444 8.40442C16.0954 8.69977 16.6299 8.86972 17.2061 8.86972L17.206 9.32947V10.9315C16.137 10.9315 15.146 10.5888 14.3386 10.0093V14.2024C14.3386 16.2949 12.6349 18 10.5443 18C9.73703 18 8.98538 17.7436 8.37015 17.3118C7.39025 16.6236 6.75 15.4868 6.75 14.2024C6.75 12.1073 8.45092 10.4049 10.5415 10.4077C10.7169 10.4077 10.8868 10.4216 11.0538 10.4439V10.9315L11.0476 10.9344L11.0537 10.9342V12.5503C10.8923 12.5001 10.7197 12.4694 10.5415 12.4694C9.58673 12.4694 8.81003 13.2468 8.81003 14.2024C8.81003 14.8684 9.18862 15.445 9.7398 15.7376C9.74498 15.7447 9.75015 15.7517 9.7554 15.7587L9.76462 15.7708C9.75832 15.7586 9.75097 15.7466 9.74257 15.7348C9.98475 15.863 10.2576 15.9355 10.5471 15.9355C11.4797 15.9355 12.2425 15.1916 12.2759 14.2666L12.2786 6H14.3386Z" fill="#79797A"/>
</svg>
