<svg width="183" height="36" viewBox="0 0 183 36" fill="none" xmlns="http://www.w3.org/2000/svg">
<path d="M17.7861 0C7.96081 0 0 8.00511 0 17.8805C0 27.756 7.96081 35.7611 17.7861 35.7611C27.6115 35.7611 35.5677 27.756 35.5677 17.8805C35.5677 8.00511 27.6069 0 17.7861 0ZM25.7013 23.1744C25.7013 24.4014 25.4133 25.4399 24.833 26.2946C24.2526 27.1494 23.4666 27.8111 22.4657 28.2752C21.4695 28.7394 20.327 28.9737 19.0474 28.9737H11.1049V6.78734H19.0794C20.359 6.78734 21.4969 7.01711 22.484 7.48584C23.4711 7.94997 24.248 8.60251 24.8147 9.43427C25.3814 10.2706 25.6647 11.2448 25.6647 12.3661V12.6189C25.6647 13.6528 25.4728 14.503 25.0843 15.1693C24.6959 15.8356 24.216 16.3549 23.6494 16.7409C23.2244 17.0258 22.8176 17.2418 22.4292 17.398H22.4246C22.3743 17.421 22.3287 17.4486 22.2967 17.4899C21.2182 17.8622 20.2996 18.0414 20.2996 18.0414L17.2515 18.9007V16.1251L13.9794 14.3513V23.9694L22.5526 18.455L22.8542 18.2574C23.1238 18.3814 23.398 18.5331 23.6768 18.7169C24.2435 19.0891 24.7233 19.6084 25.1117 20.2885C25.5002 20.964 25.6921 21.8188 25.6921 22.8527V23.1698L25.7013 23.1744Z" fill="#45DB98"/>
<path d="M44.3242 8.75389H48.9444L50.5028 21.6439L56.8367 8.75389H61.7631L52.8791 26.5977H46.8788L44.3242 8.75389Z" fill="#45DB98"/>
<path d="M62.8491 26.1618C61.734 25.546 60.9388 24.6959 60.4636 23.6068C59.9883 22.5177 59.8695 21.2769 60.1071 19.8707C60.3265 18.5702 60.8566 17.3709 61.6883 16.2772C62.52 15.1835 63.5894 14.3104 64.8918 13.6578C66.1942 13.0053 67.6292 12.6836 69.1921 12.6836C70.755 12.6836 72.1077 13.0191 73.1862 13.6854C74.2693 14.3517 75.0279 15.2386 75.4712 16.3415C75.9145 17.4444 76.0242 18.63 75.8048 19.8983C75.6494 20.4957 75.5306 20.9093 75.4483 21.1299H64.3388C64.3023 21.8835 64.5902 22.4947 65.1934 22.9634C65.7967 23.4321 66.6101 23.6711 67.6338 23.6711C68.3467 23.6711 69.0367 23.5378 69.7039 23.2713C70.3666 23.0048 70.8967 22.6785 71.2851 22.2833L74.2739 24.2363C73.3736 25.0911 72.2814 25.7804 71.0064 26.3042C69.7314 26.8281 68.3832 27.0854 66.9711 27.0854C65.3351 27.0854 63.9641 26.7776 62.8491 26.1618ZM71.5685 18.6392C71.6005 18.1934 71.5228 17.7707 71.3263 17.3663C71.1298 16.9665 70.819 16.6494 70.394 16.415C69.969 16.1853 69.4252 16.0704 68.758 16.0704C67.8394 16.0704 67.0305 16.3001 66.3313 16.7643C65.6321 17.2284 65.1294 17.8534 64.8233 18.6392H71.5639H71.5685Z" fill="#45DB98"/>
<path d="M78.5383 13.1707H83.1585L81.0655 26.5983H76.4453L78.5383 13.1707ZM87.4771 19.2825C87.6325 18.3083 87.5822 17.5547 87.3354 17.0216C87.0887 16.4931 86.5905 16.2266 85.8411 16.2266C84.9225 16.2266 84.1136 16.608 83.4144 17.3709C82.7153 18.1337 82.2491 19.1814 82.0115 20.5141L80.7593 20.027C81.0335 18.5381 81.5271 17.2376 82.2537 16.1255C82.9757 15.0134 83.844 14.1633 84.8585 13.5705C85.8731 12.9777 86.9561 12.6836 88.1123 12.6836C89.7484 12.6836 90.9183 13.2167 91.622 14.2874C92.3304 15.3581 92.5177 16.8838 92.1978 18.8689L90.996 26.5983H86.3255L87.4725 19.2825H87.4771ZM97.3847 19.2825C97.5538 18.2899 97.5081 17.5317 97.243 17.0124C96.978 16.4886 96.4662 16.2312 95.6984 16.2312C94.7799 16.2312 93.9893 16.6034 93.3221 17.3479C92.6594 18.0923 92.1978 19.1493 91.9419 20.5187L90.6898 20.0316C90.9457 18.5427 91.4347 17.2422 92.1567 16.1301C92.8788 15.018 93.7471 14.1679 94.7616 13.5751C95.7761 12.9823 96.8592 12.6882 98.0154 12.6882C99.6148 12.6882 100.776 13.2029 101.502 14.2276C102.224 15.2524 102.444 16.7091 102.151 18.5932L100.899 26.6029H96.2514L97.3756 19.2871L97.3847 19.2825Z" fill="#45DB98"/>
<path d="M105.834 8.75459H110.482L107.671 26.5984H103.023L105.834 8.75459ZM105.706 16.7138H111.885C114.115 16.7138 115.796 17.0814 116.93 17.8166C118.063 18.5519 118.575 19.664 118.474 21.1529C118.424 22.0949 118.081 22.9864 117.455 23.8228C116.825 24.6637 115.961 25.3346 114.864 25.8401C113.767 26.3456 112.511 26.5984 111.098 26.5984H103.796L105.711 16.7138H105.706ZM107.342 8.75459H113.982C116.025 8.75459 117.423 9.22792 118.182 10.1792C118.94 11.1304 119.183 12.3252 118.909 13.7589C118.621 15.1973 117.688 16.2864 116.112 17.0308C114.535 17.7753 112.593 18.1475 110.276 18.1475H105.295L107.337 8.75L107.342 8.75459ZM110.737 23.0324C111.624 23.0324 112.346 22.8669 112.908 22.5315C113.47 22.196 113.818 21.7043 113.955 21.0564C114.074 20.5095 113.955 20.0546 113.612 19.6961C113.265 19.3377 112.671 19.1585 111.839 19.1585H107.063L106.296 23.037H110.737V23.0324ZM111.606 16.098C112.405 16.098 113.059 15.9371 113.557 15.6109C114.06 15.2846 114.389 14.8159 114.54 14.2001C114.677 13.5476 114.558 13.0421 114.183 12.6744C113.808 12.3068 113.224 12.123 112.419 12.123H107.872L107.283 16.1026H111.597L111.606 16.098Z" fill="#45DB98"/>
<path d="M122.396 26.1618C121.281 25.546 120.486 24.6959 120.01 23.6068C119.535 22.5177 119.416 21.2769 119.654 19.8707C119.873 18.5702 120.403 17.3709 121.235 16.2772C122.067 15.1835 123.136 14.3104 124.439 13.6578C125.741 13.0053 127.176 12.6836 128.739 12.6836C130.302 12.6836 131.655 13.0191 132.733 13.6854C133.816 14.3517 134.575 15.2386 135.018 16.3415C135.461 17.4444 135.571 18.63 135.352 19.8983C135.196 20.4957 135.077 20.9093 134.995 21.1299H123.886C123.849 21.8835 124.137 22.4947 124.74 22.9634C125.344 23.4321 126.157 23.6711 127.181 23.6711C127.894 23.6711 128.584 23.5378 129.251 23.2713C129.913 23.0048 130.444 22.6785 130.832 22.2833L133.821 24.2363C132.92 25.0911 131.828 25.7804 130.553 26.3042C129.278 26.8281 127.93 27.0854 126.518 27.0854C124.882 27.0854 123.511 26.7776 122.396 26.1618ZM131.115 18.6392C131.147 18.1934 131.07 17.7707 130.873 17.3663C130.677 16.9665 130.366 16.6494 129.941 16.415C129.516 16.1853 128.972 16.0704 128.305 16.0704C127.386 16.0704 126.577 16.3001 125.878 16.7643C125.179 17.2284 124.676 17.8534 124.37 18.6392H131.111H131.115Z" fill="#45DB98"/>
<path d="M140.534 16.5338H136.348L136.859 13.17H141.046L141.758 8.67578H146.484L145.771 13.17H150.19L149.678 16.5338H145.259L143.678 26.5977H138.953L140.534 16.5338Z" fill="#45DB98"/>
<path d="M151.617 26.1526C150.749 25.5276 150.132 24.6637 149.767 23.5608C149.401 22.4579 149.319 21.231 149.524 19.8753C149.73 18.5565 150.219 17.3525 150.991 16.2542C151.764 15.1605 152.714 14.292 153.838 13.6486C154.963 13.0053 156.128 12.6836 157.334 12.6836C158.541 12.6836 159.578 13.0007 160.437 13.6348C161.297 14.269 161.9 15.1329 162.252 16.2266C162.599 17.3203 162.672 18.5381 162.466 19.8707C162.229 21.1896 161.726 22.3982 160.958 23.5057C160.191 24.6085 159.263 25.4817 158.175 26.125C157.088 26.7684 155.927 27.09 154.702 27.09C153.477 27.09 152.481 26.7776 151.613 26.1526H151.617ZM158.6 23.354C159.24 23.0048 159.784 22.5223 160.236 21.9157C160.689 21.3091 160.981 20.629 161.118 19.8753C161.237 19.1217 161.191 18.437 160.977 17.8212C160.762 17.2054 160.419 16.7275 159.944 16.3829C159.469 16.0428 158.897 15.8682 158.235 15.8682C157.536 15.8682 156.877 16.0428 156.256 16.3966C155.634 16.7459 155.109 17.233 154.675 17.8488C154.241 18.4646 153.962 19.1493 153.843 19.9029C153.724 20.6565 153.77 21.3367 153.985 21.9432C154.199 22.5498 154.538 23.0277 155.004 23.3678C155.47 23.7125 156.027 23.8825 156.676 23.8825C157.325 23.8825 157.965 23.7079 158.605 23.354H158.6ZM162.137 13.1753H166.758L164.687 26.6029H160.067L162.137 13.1753Z" fill="#45DB98"/>
<path d="M168.855 13.1707H173.475L171.382 26.5983H166.762L168.855 13.1707ZM171.025 20.5417C171.313 18.9654 171.853 17.5822 172.634 16.3829C173.416 15.1835 174.32 14.269 175.339 13.6348C176.359 13.0007 177.391 12.6836 178.429 12.6836C179.466 12.6836 180.238 12.9226 180.892 13.4005C181.545 13.8784 181.993 14.609 182.231 15.5833C182.469 16.5575 182.45 17.7661 182.181 19.2044H177.56C177.73 18.2807 177.679 17.5547 177.405 17.0216C177.131 16.4931 176.665 16.2266 176.002 16.2266C175.44 16.2266 174.91 16.3966 174.407 16.7413C173.905 17.0859 173.47 17.5822 173.105 18.2302C172.739 18.8827 172.479 19.6502 172.328 20.5417H171.025Z" fill="#45DB98"/>
</svg>
